<svg width="40" height="40" viewBox="0 0 40 40" fill="none" xmlns="http://www.w3.org/2000/svg">
<path d="M20 38.75C30.3553 38.75 38.75 30.3553 38.75 20C38.75 9.64466 30.3553 1.25 20 1.25C9.64466 1.25 1.25 9.64466 1.25 20C1.25 30.3553 9.64466 38.75 20 38.75Z" fill="#C28FEF"/>
<path d="M20 24.125C22.2782 24.125 24.125 22.2782 24.125 20C24.125 17.7218 22.2782 15.875 20 15.875C17.7218 15.875 15.875 17.7218 15.875 20C15.875 22.2782 17.7218 24.125 20 24.125Z" fill="white"/>
<path d="M20.125 26.625L25.875 35.125C30.125 33.5 33.5 30.125 35.125 25.875L26.625 20.125C26.5625 23.6875 23.6875 26.5625 20.125 26.625ZM19.875 13.375L14.125 4.875C9.875 6.5 6.5 9.875 4.875 14.125L13.375 19.875C13.4375 16.3125 16.3125 13.4375 19.875 13.375Z" fill="#FFC7CE"/>
<path d="M20 28.125C15.5625 28.125 11.875 24.5 11.875 20C11.875 15.5625 15.5 11.875 20 11.875C24.5 11.875 28.125 15.5 28.125 20C28.125 24.4375 24.4375 28.125 20 28.125ZM20 13.5625C16.4375 13.5625 13.5625 16.4375 13.5625 20C13.5625 23.5625 16.4375 26.4375 20 26.4375C23.5625 26.4375 26.4375 23.5625 26.4375 20C26.4375 16.4375 23.5625 13.5625 20 13.5625Z" fill="#9450E0"/>
</svg>
